# xmcd CD database file
#
# Track frame offsets:
#	150
#	18272
#	34328
#	47357
#	63650
#	81608
#	98047
#	114514
#	135420
#	153160
#	177637
#	194922
#	214402
#	228458
#	253724
#	271854
#	286022
#	302708
#	314056
#
# Disc length: 4326 seconds
#
# Revision: 0
# Processed by: cddbd v1.5PL3 Copyright (c) Steve Scherf et al.
# Submitted via: CDex 1.51
#
DISCID=1810e413
DTITLE=Levi's - Beyond The Years
DYEAR=2003
DGENRE=Rock
TTITLE0=The Rockafeller Skank
TTITLE1=Stop The Rock (@440 Original)
TTITLE2=Grateful When You're Dead
TTITLE3=Rocks
TTITLE4=I Try
TTITLE5=Place Your Hands
TTITLE6=Space Cowboy
TTITLE7=Nappy Heads (Remix Radio Edit)
TTITLE8=Appetite
TTITLE9=Lights Are Changing
TTITLE10=And We Danced
TTITLE11=When I See You Smile
TTITLE12=Family Affair
TTITLE13=That Lady (Part 1 and 2)
TTITLE14=El Becko
TTITLE15=Should I Stay Or Should I Go
TTITLE16=Move Over
TTITLE17=All Along The Watchtower
TTITLE18=Make Her Mine
EXTD=YEAR: 2003
EXTT0=
EXTT1=
EXTT2=
EXTT3=
EXTT4=
EXTT5=
EXTT6=
EXTT7=
EXTT8=
EXTT9=
EXTT10=
EXTT11=
EXTT12=
EXTT13=
EXTT14=
EXTT15=
EXTT16=
EXTT17=
EXTT18=
PLAYORDER=
